PathFileType	4	(X/Y/Z)	C:/Users/beibeiliu/ov580/test_trc\sequence.22_training_dense_right.trc
DataRate	CameraRate	NumFrames	NumMarkers	Units	OrigDataRate	OrigDataStartFrame	OrigNumFrames
120	120	23	19	mm	120	203	324
Frame#	Time	ThumbCMC			ThumbMCP			ThumbIP			ThumbTip			IndexMCP			IndexPIP			IndexTip			MiddleMCP			MiddlePIP			MiddleTip			RingMCP			RingPIP			RingTip			PinkyMCP			PinkyPIP			PinkyTip			BackHand1			BackHand2			BackHand3	
		X0	Y0	Z0	X1	Y1	Z1	X2	Y2	Z2	X3	Y3	Z3	X4	Y4	Z4	X5	Y5	Z5	X6	Y6	Z6	X7	Y7	Z7	X8	Y8	Z8	X9	Y9	Z9	X10	Y10	Z10	X11	Y11	Z11	X12	Y12	Z12	X13	Y13	Z13	X14	Y14	Z14	X15	Y15	Z15	X16	Y16	Z16	X17	Y17	Z17	X18	Y18	Z18	
202	1.68333	220.195	28.4655	26.9299	220.868	57.9546	23.9121	218.982	80.192	13.2038	214.588	96.926	6.21042	199.512	55.6454	-28.9017	191.865	79.9913	-28.6583	187.45	102.579	-18.6608	179.424	57.2323	-15.4353	180.745	78.8416	7.34242	194.212	57.2637	24.838	166.386	57.7015	-2.03699	175.891	66.7397	22.6202	186.434	44.5079	30.9632	152.088	50.6563	11.2946	169.491	59.2238	27.5212	180.773	35.731	34.4075	171.606	6.24491	9.01776	178.737	-5.63454	30.4517	202.423	4.49454	12.9994	
203	1.69167	223.057	29.7117	24.9113	223.854	58.3864	22.0772	218.591	78.8195	10.6472	217.834	97.8353	3.14842	200.503	54.3272	-30.3903	196.766	77.8789	-33.1233	192.979	104.491	-22.9003	178.71	60.3903	-18.9346	182.413	78.3336	2.07585	191.424	54.6229	23.3357	164.699	56.9596	-4.11642	178.036	66.7862	19.6177	185.095	41.264	28.5999	155.818	53.5846	6.93554	171.303	57.9922	24.4922	180.732	37.8306	30.8378	172.288	7.4987	6.33291	177.526	-8.02537	32.679	202.914	3.10007	9.72037	
204	1.7	220.768	27.4852	27.7684	219.656	56.951	19.0983	221.175	77.3839	7.67177	219.842	94.1779	1.11773	199.299	50.6161	-33.3604	198.491	76.0078	-36.2265	191.54	100.992	-27.7638	178.84	56.5828	-21.6539	180.475	76.2721	-1.52618	194.167	55.5779	20.2689	167.852	58.1084	-8.45812	176.038	65.8378	17.2155	187.898	41.4242	24.3376	155.85	50.0059	2.53714	167.922	58.1536	23.428	180.417	37.6686	27.6878	172.426	8.14053	7.11623	178.19	-5.72254	29.4903	202.557	2.77835	11.8751	
205	1.70833	220.622	27.7429	25.7078	225.091	55.7601	18.5647	222.578	74.6291	5.19789	219.545	91.0572	-5.81053	202.136	46.8817	-34.8124	200.434	72.3752	-39.9706	197.399	92.0887	-35.9093	181.138	50.056	-23.9035	182.595	73.9034	-7.16791	193.018	50.9101	18.1889	166.551	55.6034	-12.1233	178.047	66.388	8.32631	187.928	43.4446	20.5964	158.011	45.706	-1.66786	169.8	59.2891	16.8088	181.431	35.6371	24.5263	170.525	5.02696	5.16503	181.733	-6.88674	31.0476	201.581	0.383588	11.3955	
206	1.71667	222.309	26.7939	24.7133	223.741	56.3369	14.4149	224.193	75.4984	0.116319	223.123	90.1358	-9.51112	205.241	41.4368	-36.3165	204.517	64.9036	-42.7676	199.543	90.0014	-40.1567	184.99	45.6657	-27.4205	184.058	72.1469	-11.3195	195.439	52.5662	14.7801	169.648	48.2348	-15.6297	179.365	63.8638	7.82887	186.457	38.8708	20.6861	159.497	44.4221	-4.78126	174.066	57.5254	12.3927	181.923	37.011	22.338	177.284	3.94531	4.84971	179.383	-5.27225	29.692	202.387	1.03107	12.8523	
207	1.725	223.892	26.804	28.755	222.629	54.278	13.3157	227.545	73.0694	-1.31458	226.507	87.5492	-11.065	212.08	37.6217	-36.8285	206.557	60.165	-46.2897	203.99	83.1558	-44.2109	189.462	47.0966	-30.1344	187.583	69.3787	-15.9132	198.834	51.654	12.281	173.632	43.994	-17.8445	181.688	61.8467	4.45912	188.572	42.4815	18.4135	162.697	40.2237	-7.4652	171.775	56.6636	11.5064	183.83	36.9018	20.555	179.927	1.07299	5.70933	181.159	-8.31277	34.5128	206.866	-2.16595	17.0465	
208	1.73333	226.107	28.0567	28.0815	226.714	54.1003	14.8658	227.65	69.9968	-4.23776	229.906	85.5302	-18.438	217.445	31.7923	-35.9713	214.393	52.4696	-48.0882	207.308	82.9113	-49.1514	194.783	42.1708	-32.5844	189.044	66.6942	-19.8341	196.859	52.8728	9.50728	179.224	41.0614	-21.8249	183.569	60.5888	-6.24101	190.121	42.4341	15.9739	165.992	41.7294	-11.052	170.948	56.2036	5.01842	185.188	38.3795	19.0509	184.402	1.20037	6.84986	186.1	-7.68695	31.6714	208.8	-1.06131	14.6561	
209	1.74167	229.076	29.9686	30.1313	226.693	54.0911	11.4558	228.559	67.3531	-4.37811	231.277	82.7862	-21.1601	221.689	27.5444	-33.6944	216.433	49.5338	-50.157	211.106	72.4321	-53.9988	196.583	35.363	-32.4996	191.347	63.6024	-23.4803	201.134	52.719	5.71846	182.039	38.3614	-24.4029	184.265	59.0287	-3.28993	190.833	38.3899	15.417	168.973	37.2496	-14.183	177.392	53.9145	2.29902	186.608	37.9403	18.1006	183.379	-0.341406	5.86321	185.67	-5.56909	34.0952	209.682	-0.49482	17.9025	
210	1.75	225.619	29.0879	31.2469	224.901	52.5995	8.61256	227.922	66.7077	-8.54882	231.386	79.444	-18.5082	225.507	27.4606	-35.8858	220.324	44.0505	-51.0695	216.285	72.7382	-58.5261	199.042	35.8679	-36.2549	198.294	62.263	-26.6075	200.866	53.1104	2.66495	183.843	33.1749	-25.5436	188.03	56.7842	-9.97501	195.387	42.0361	11.3917	169.377	29.9701	-15.3975	177.268	51.5292	-3.44008	187.466	36.9792	14.1157	190.856	-0.975457	8.61709	190.965	-7.35329	37.5115	215.494	-1.00797	21.637	
211	1.75833	230.76	33.9676	30.3462	229.889	56.1643	12.9199	232.942	68.6043	-7.74123	235.105	80.9119	-22.0918	229.756	27.114	-36.3461	226.409	42.9807	-52.9284	219.807	68.7074	-62.3625	206.343	30.1679	-35.3347	198.818	57.8108	-30.7223	202.681	52.3417	0.780741	189.191	34.0695	-27.8833	186.138	55.7254	-12.2555	192.925	41.0967	10.6396	172.474	29.4014	-18.5911	177.856	49.0408	-10.3687	187.986	36.3105	13.8957	195.294	-2.65875	7.1508	191.258	-4.68628	37.7686	217.905	-0.713972	20.9678	
212	1.76667	231.798	36.4836	29.7988	226.088	54.7626	11.2041	232.985	69.285	-8.28339	234.567	80.1645	-25.3029	234.84	25.3474	-33.9771	231.215	39.4205	-50.4852	224.526	62.9455	-65.2502	208.322	29.9827	-37.5123	202.833	55.7436	-33.0089	202.799	51.2607	-0.603825	187.917	31.1361	-29.83	190.283	53.5767	-14.6565	195.774	40.7967	9.21608	175.304	26.9017	-20.8182	180.11	47.835	-10.1651	188.707	35.7517	11.5371	198.58	-4.30685	10.4443	197.838	-3.31917	36.5292	222.891	2.2587	24.5063	
213	1.775	230.057	38.267	33.1068	228.571	57.6377	7.59768	230.837	68.7573	-11.414	233.596	78.3815	-29.7488	239.248	24.7281	-28.2318	236.058	38.4233	-49.486	228.719	59.752	-66.9167	214.214	24.9937	-33.9683	202.863	53.8133	-33.3832	203.389	45.9889	1.11988	197.161	27.5778	-30.0831	191.093	49.52	-19.185	200.127	39.3846	8.29984	181.086	20.2529	-20.9212	180.286	43.5583	-12.722	192.544	36.5536	7.10671	201.888	-5.50701	14.8837	198.626	-4.38808	41.8972	226.387	4.46587	31.2436	
214	1.78333	230.525	41.99	36.385	224.993	56.365	11.874	230.671	69.0883	-11.3025	232.145	78.8424	-25.1748	243.924	25.855	-26.9151	238.903	36.7279	-47.8929	232.966	56.1127	-64.8536	221.004	25.416	-32.7349	204.449	48.5963	-35.118	206.86	48.5126	-0.552044	202.521	23.9334	-29.8767	193.773	47.895	-19.3332	198.23	40.713	6.71636	184.323	16.1717	-22.0314	185.924	40.3659	-14.1385	194.979	33.8695	7.90858	205.922	-6.94376	12.595	201.381	-7.22882	40.6837	226.377	5.96755	32.7817	
215	1.79167	229.973	42.9374	36.1236	226.782	57.4303	8.83294	229.49	66.9051	-9.23601	233.083	77.627	-25.6959	247.18	25.2583	-25.6895	245.519	37.1519	-47.3606	237.269	53.0225	-63.4391	227.464	25.8516	-32.1248	210.336	47.1053	-35.0806	206.926	45.0881	-0.124241	204.904	19.144	-28.6705	198.796	45.173	-19.648	201.856	40.5793	4.4624	192.681	12.8866	-22.6313	186.244	35.7167	-17.2237	195.219	35.5826	6.82044	212.553	-5.79002	17.7062	206.455	-4.76638	43.6038	234.012	8.0773	34.5273	
216	1.8	230.899	46.2157	37.4116	225.133	57.3103	10.2504	228.875	65.3791	-12.2609	233.838	77.1499	-27.4624	254.051	27.21	-20.3712	250.565	36.8005	-43.0877	241.572	50.3586	-62.47	234.038	22.2911	-26.8336	213.105	45.4952	-31.5355	212.773	47.3879	-1.18134	214.265	18.7	-28.7237	201.686	40.0987	-23.1654	205.882	36.5696	6.51618	198.918	9.34997	-21.4185	195.36	33.0091	-17.0729	197.585	29.3698	9.26628	220.057	-6.21368	17.6471	209.391	-6.66635	42.5952	232.089	9.83817	38.846	
217	1.80833	228.599	46.5316	39.5625	225.601	60.6453	12.6281	230.569	69.1846	-11.1622	230.89	75.6215	-24.8636	261.153	31.3124	-16.0194	257.924	41.7052	-39.613	247.796	53.8277	-59.6823	237.691	23.8441	-28.2143	217.992	43.6128	-32.1098	213.349	42.7527	1.44954	220.373	17.9829	-27.3302	203.76	38.215	-21.2305	207.318	36.8937	6.58736	205.485	6.68809	-21.1822	197.57	29.334	-18.64	203.089	31.6923	6.36315	221.34	-5.30655	20.6427	213.56	-6.71721	43.3373	236.156	11.6913	39.5713	
218	1.81667	227.516	46.8476	41.4782	225.134	60.2135	11.7697	230.465	70.2447	-10.087	232.378	79.5775	-23.3878	264.052	34.9016	-11.4315	261.58	45.6654	-35.4807	251.156	55.3478	-57.3925	245.971	26.1345	-23.2234	221.679	43.7005	-30.7078	214.24	42.7091	2.19564	225.564	18.7342	-25.1959	207.653	36.1104	-22.874	207.364	35.0757	6.60191	215.27	6.31308	-18.7709	200.345	26.3813	-20.1465	207.552	28.0156	8.91682	227.943	-5.92494	25.3935	217.512	-4.65979	48.4746	237.824	11.4792	41.9684	
219	1.825	224.031	46.8405	42.819	223.421	62.8232	14.0559	229.908	70.154	-8.49422	231.131	79.0229	-22.5782	264.44	34.689	-6.88484	263.608	45.5804	-32.9511	257.378	55.8614	-51.2112	250.048	26.2938	-21.4871	228.269	42.4512	-30.2568	215.996	43.8678	0.133048	229.28	16.3821	-23.4374	213.146	36.0844	-19.5626	210.471	34.48	9.1616	220.143	7.78334	-19.0818	207.719	25.789	-18.2143	207.084	26.879	8.45541	230.529	-4.88639	25.6992	218.303	-3.12121	49.2396	236.966	16.7076	47.5968	
220	1.83333	224.475	50.537	44.6954	223.938	60.4301	12.9975	227.72	71.6411	-6.48307	232.874	80.342	-23.0858	270.172	42.0976	-3.48606	269.084	51.5275	-28.1529	263.316	61.9249	-47.8308	253.485	27.1929	-18.5842	230.694	46.4248	-25.4483	217.594	40.7282	1.83908	237.515	16.2787	-16.8392	215.323	34.6903	-18.2476	212.795	33.4562	9.906	225.118	7.92541	-15.4582	207.055	25.7912	-13.8757	210.315	27.529	10.4197	233.499	-4.92312	27.2148	217.426	-1.86545	52.126	241.002	17.8033	45.9092	
221	1.84167	224.012	50.5329	44.1967	221.78	63.7049	16.419	227.478	70.8391	-2.60832	233.859	82.297	-20.1046	272.096	42.3338	0.0670046	272.421	50.4315	-20.6487	268.986	64.5598	-41.5936	256.768	28.9637	-12.1419	234.394	49.1861	-21.3784	220.893	42.6694	5.24227	240.356	17.4699	-14.0723	217.798	35.8352	-14.7795	215.323	34.9439	11.4804	227.64	4.57775	-15.5164	214.916	25.2902	-14.4369	208.277	24.4194	10.5319	236.819	-3.17028	32.5968	219.401	-0.701105	53.9323	240.094	17.9447	52.1176	
222	1.85	224.135	50.8095	44.111	222.55	61.4499	18.8323	231.544	75.2607	-2.81308	233.032	84.6884	-15.5216	273.896	46.4592	4.01953	275.501	54.0097	-19.4387	272.873	65.767	-36.508	260.732	32.6621	-7.67789	236.947	49.9367	-19.9067	222.499	45.4506	5.93172	243.845	23.1726	-14.6284	221.964	36.4192	-13.7762	216.059	31.8282	15.0598	231.541	9.63404	-16.1784	215.789	27.0866	-10.9407	213.517	27.6571	11.8325	239.024	-3.3743	32.2047	222.754	-1.19414	51.5221	242.241	22.2434	52.0166	
223	1.85833	222.464	48.5008	44.6737	225.912	63.5284	16.1572	229.709	71.578	0.756981	237.299	87.3344	-17.8664	275.062	49.4832	9.3182	279.668	60.3479	-12.0859	274.861	67.8691	-36.7645	262.546	37.2903	-8.1263	237.025	48.4499	-18.4344	223.66	43.9306	6.39588	245.503	23.9923	-15.1201	223.858	38.8511	-10.6532	216.863	31.3299	16.4829	237.164	8.05598	-9.70183	218.304	27.9954	-9.02844	213.727	21.8954	15.9115	242.613	0.617448	35.3243	225.111	-1.50024	54.025	240.529	21.6653	56.4466	
224	1.86667	222.518	51.8257	46.6555	226.773	61.6165	16.3209	232.123	72.039	-0.601923	236.106	86.017	-15.367	276.687	50.079	10.368	280.374	60.0466	-11.0396	277.528	71.0801	-34.7754	265.348	38.2383	-5.07737	238.408	47.575	-18.4979	224.426	44.5922	8.57444	249.113	21.2936	-9.69173	224.389	38.1049	-11.3765	219.862	33.139	16.563	238.802	11.3865	-11.3233	221.181	28.7243	-8.96006	214.86	25.3525	14.3124	244.727	0.47934	32.6638	223.599	-0.779357	51.6973	240.383	20.7846	56.1992	
